<?xml version="1.0" encoding="UTF-8"?>
<svg width="69px" height="32px" viewBox="0 0 69 32" version="1.1" xmlns="http://www.w3.org/2000/svg" xmlns:xlink="http://www.w3.org/1999/xlink">
    <!-- Generator: sketchtool 63.1 (101010) - https://sketch.com -->
    <title>72CE0C04-FB31-4DC3-B442-012C1DC6B3AA</title>
    <desc>Created with sketchtool.</desc>
    <g id="Page-2" stroke="none" stroke-width="1" fill="none" fill-rule="evenodd">
        <g id="Log-in" transform="translate(-478.000000, -200.000000)" fill-rule="nonzero">
            <g id="Group" transform="translate(352.000000, 200.000000)">
                <g id="logo" style="mix-blend-mode: luminosity;" transform="translate(126.000000, 0.000000)">
                    <path d="M17.9634197,0.051306309 C19.0357501,-0.0430889713 20.1137442,0.0258195833 21.1889064,0.00505262167 C22.3395849,1.29166029 23.4005878,2.65567209 24.537107,3.9554951 C25.7453666,5.40446265 26.9592899,6.84776649 28.1751011,8.29012637 C27.736163,8.34109982 27.2953371,8.32127681 26.856399,8.31466914 C24.6220628,8.31655705 22.3877265,8.31278124 20.1533902,8.31466914 C18.5496144,8.27974289 16.9146881,8.4034007 15.3930362,8.94522961 C14.0667825,9.41720601 12.8009418,10.1327222 11.8409418,11.1748461 C10.6600569,12.4444627 9.88790346,14.137914 9.89451113,15.8889464 C9.8350421,17.3501854 10.2248946,18.8321913 11.0536852,20.0423388 C11.0499094,20.0942562 11.0433017,20.198091 11.0395259,20.2500084 C11.257579,20.29815 11.3784049,20.4963801 11.5181099,20.6511883 C12.5781689,21.8764391 14.017697,22.7363801 15.5629477,23.2008048 C17.0402338,23.678445 18.6081394,23.7700084 20.1505583,23.7454656 C25.9417088,23.7398019 31.7338032,23.7473535 37.5249536,23.7435777 C40.3086704,23.7558491 43.0923872,23.7199789 45.876104,23.7624568 C47.87634,26.1657606 49.9077265,28.5445216 51.917402,30.9393299 C52.1581099,31.2961441 52.5205878,31.5670585 52.7065465,31.9587989 C41.4782279,31.9720143 30.2499094,31.9635187 19.0215908,31.9635187 C15.7696734,31.9238727 12.496989,31.2914243 9.54808045,29.8924862 C6.25746098,28.3840497 3.3831247,25.8599199 1.70760847,22.6278255 C-0.0613590779,19.3532532 -0.439884152,15.3990349 0.497460981,11.8139022 C1.51881791,8.02298772 4.22324269,4.81166029 7.59598605,2.8614538 C10.737461,1.05756 14.3594079,0.18629156 17.9634197,0.051306309 Z" id="Path" fill="#5555FF"></path>
                    <path d="M25.2488474,0.0173240081 C33.0496734,0.00599657447 40.8514433,0.0163800553 48.6522692,0.0126042441 C50.4759861,0.0201558665 52.3034787,-0.0327054904 54.1224757,0.123046722 C56.3256616,0.319388905 58.5458386,0.638444952 60.6215908,1.43514112 C60.5035967,1.54180778 53.7486704,8.25331221 53.6797619,8.38640955 C52.698051,8.28918242 51.7125642,8.32694053 50.7280215,8.32033286 C44.5592899,8.32316472 38.3915023,8.32033286 32.2227707,8.32127681 C29.9157501,5.53850395 27.5634197,2.7934892 25.2488474,0.0173240081 Z" id="Path" fill="#1B1B39"></path>
                    <path d="M60.6215908,1.43514112 C63.1334492,2.33850395 65.4687884,4.07820896 66.8422397,6.38711752 C67.6257206,7.78039185 67.9721512,9.38983138 67.9929182,10.9785039 C68.1401748,13.7027517 67.2122692,16.5147871 65.3205878,18.5055836 C63.8348061,20.098032 61.8119153,21.1514833 59.6748061,21.5413358 C62.216871,24.6054066 64.8051896,27.6279435 67.357638,30.6835187 C67.7021807,31.1092414 68.0939212,31.49815 68.3950421,31.957855 C65.4621807,31.9531352 62.5302633,31.957855 59.597402,31.9559671 C59.2207648,31.9521913 57.3234197,31.997501 56.7900863,31.9257606 C53.357874,27.8960261 49.9653076,23.8294774 46.5557501,19.7799199 C46.3046586,19.4042267 45.9856026,19.0880025 45.6844816,18.7557311 C45.2719743,18.1431057 44.7018268,17.6598019 44.2808238,17.0528402 C43.936281,16.5402739 43.4293784,16.1626927 43.1074905,15.6359671 C44.2600569,15.6057606 45.4126232,15.7001559 46.5651896,15.6350231 C47.0079035,15.6029287 47.4496734,15.6472945 47.8923872,15.6548461 C49.4008238,15.6000969 50.9111483,15.6387989 52.4195849,15.6265275 C53.6448356,15.6189759 54.896517,15.417914 55.9858386,14.8307753 C56.8599389,14.3852296 57.6481394,13.5941972 57.8001158,12.5907753 C57.9738032,11.5420438 57.6896734,10.3800379 56.9005288,9.63714702 C56.0386999,8.84611457 54.8030657,8.56764849 53.6797619,8.38640955 C54.5246909,7.17100211 59.8644079,1.92344495 60.6215908,1.43514112 Z" id="Path" fill="#1B1B39"></path>
                </g>
            </g>
        </g>
    </g>
</svg>